<svg height="512pt" viewBox="0 0 512 512" width="512pt" xmlns="http://www.w3.org/2000/svg"><path d="m256 151c-6.300781 0-12.898438.597656-19.5 1.800781-42 7.5-75.300781 40.800781-83.398438 82.5-8.101562 40.800781 7.796876 81.296875 41.398438 105.300781 10.199219 7.5 16.5 20.699219 16.5 34.796876v60.601562c0 8.398438 6.597656 15 15 15h60c8.402344 0 15-6.601562 15-15v-60.601562c0-14.097657 6.597656-27.296876 18-36 26.699219-19.796876 42-50.398438 42-83.398438 0-59.101562-48-105-105-105zm0 0" fill="#ffe477"/><path d="m286 451h-30v-300c57 0 105 45.898438 105 105 0 33-15.300781 63.601562-42 83.398438-11.402344 8.703124-18 21.902343-18 36v60.601562c0 8.398438-6.597656 15-15 15zm0 0" fill="#ffb655"/><path d="m296.5 266.5-25.5 25.800781v23.699219c0 8.398438-6.597656 15-15 15s-15-6.601562-15-15v-23.699219l-25.5-25.800781c-6-5.699219-6-15.300781 0-21 5.699219-6 15.300781-6 21 0l19.5 19.199219 19.503906-19.199219c5.699219-6 15.296875-6 20.996094 0 6 5.699219 6 15.300781 0 21zm0 0" fill="#ffb655"/><path d="m296.5 266.5-25.5 25.800781v23.699219c0 8.398438-6.597656 15-15 15v-66.300781l19.5-19.199219c5.699219-6 15.300781-6 21 0 6 5.699219 6 15.300781 0 21zm0 0" fill="#ff9100"/><path d="m497 211h-20.800781c-5.699219-27.898438-16.796875-54.902344-32.699219-78.898438l14.097656-14.101562c5.703125-5.699219 5.703125-15.300781 0-21l-42.597656-42.601562c-5.699219-5.699219-15.300781-5.699219-21 0l-14.101562 14.101562c-24-15.902344-51-27-78.898438-32.699219v-20.800781c0-8.402344-6.597656-15-15-15h-60c-8.402344 0-15 6.597656-15 15v20.800781c-27.898438 5.699219-54.902344 16.796875-78.898438 32.699219l-14.101562-14.101562c-5.699219-5.699219-15.300781-5.699219-21 0l-42.597656 42.601562c-5.703125 5.699219-5.703125 15.296875 0 21l14.097656 14.101562c-15.902344 24-27 51-32.699219 78.898438h-20.800781c-8.402344 0-15 6.597656-15 15v60c0 8.398438 6.597656 15 15 15h20.800781c5.699219 27.898438 16.796875 54.898438 32.699219 78.898438l-14.097656 14.101562c-5.703125 5.699219-5.703125 15.300781 0 21l42.597656 42.597656c5.699219 5.703125 15.300781 5.703125 21 0l14.101562-14.097656c24 15.898438 51 27 78.898438 32.699219v20.800781c0 8.398438 6.597656 15 15 15h60c8.402344 0 15-6.601562 15-15v-20.800781c27.898438-5.699219 54.902344-16.800781 78.898438-32.699219l14.101562 14.097656c5.699219 5.703125 15.300781 5.703125 21 0l42.597656-42.597656c5.703125-5.699219 5.703125-15.300781 0-21l-14.097656-14.101562c15.902344-24 27-51 32.699219-78.898438h20.800781c8.402344 0 15-6.601562 15-15v-60c0-8.402344-6.597656-15-15-15zm-241 210c-90.902344 0-165-74.101562-165-165 0-90.902344 74.097656-165 165-165s165 74.097656 165 165c0 90.898438-74.097656 165-165 165zm0 0" fill="#007a9f"/><path d="m512 226v60c0 8.398438-6.597656 15-15 15h-20.800781c-5.699219 27.898438-16.796875 54.898438-32.699219 78.898438l14.097656 14.101562c5.703125 5.699219 5.703125 15.300781 0 21l-42.597656 42.597656c-5.699219 5.703125-15.300781 5.703125-21 0l-14.101562-14.097656c-24 15.898438-51 27-78.898438 32.699219v20.800781c0 8.398438-6.597656 15-15 15h-30v-91c90.902344 0 165-74.101562 165-165 0-90.902344-74.097656-165-165-165v-91h30c8.402344 0 15 6.597656 15 15v20.800781c27.898438 5.699219 54.902344 16.796875 78.898438 32.699219l14.101562-14.101562c5.699219-5.699219 15.300781-5.699219 21 0l42.597656 42.601562c5.703125 5.699219 5.703125 15.296875 0 21l-14.097656 14.101562c15.902344 24 27 51 32.699219 78.898438h20.800781c8.402344 0 15 6.597656 15 15zm0 0" fill="#00465f"/></svg>